<svg width="24" height="26" viewBox="0 0 24 26" fill="none" xmlns="http://www.w3.org/2000/svg">
<path d="M10.6875 17.3125L15.0313 12.9688C15.2813 12.7188 15.5833 12.5938 15.9375 12.5938C16.2917 12.5938 16.5938 12.7188 16.8438 12.9688C17.0938 13.2188 17.2188 13.5208 17.2188 13.875C17.2188 14.2292 17.0938 14.5313 16.8438 14.7813L11.5625 20.0625C11.3125 20.3125 11.0208 20.4375 10.6875 20.4375C10.3542 20.4375 10.0625 20.3125 9.8125 20.0625L7.15625 17.4063C6.90625 17.1563 6.78125 16.8542 6.78125 16.5C6.78125 16.1458 6.90625 15.8438 7.15625 15.5938C7.40625 15.3438 7.70834 15.2188 8.0625 15.2188C8.41667 15.2188 8.71875 15.3438 8.96875 15.5938L10.6875 17.3125ZM3.25 25.5C2.5625 25.5 1.97375 25.255 1.48375 24.765C0.993752 24.275 0.749169 23.6867 0.750002 23V5.5C0.750002 4.8125 0.995002 4.22375 1.485 3.73375C1.975 3.24375 2.56334 2.99917 3.25 3H4.5V1.75C4.5 1.39584 4.62 1.09875 4.86 0.858754C5.1 0.618754 5.39667 0.499171 5.75 0.500004C6.10417 0.500004 6.40125 0.620004 6.64125 0.860004C6.88125 1.1 7.00084 1.39667 7 1.75V3H17V1.75C17 1.39584 17.12 1.09875 17.36 0.858754C17.6 0.618754 17.8967 0.499171 18.25 0.500004C18.6042 0.500004 18.9013 0.620004 19.1413 0.860004C19.3813 1.1 19.5008 1.39667 19.5 1.75V3H20.75C21.4375 3 22.0263 3.245 22.5163 3.735C23.0063 4.225 23.2508 4.81334 23.25 5.5V23C23.25 23.6875 23.005 24.2763 22.515 24.7663C22.025 25.2563 21.4367 25.5008 20.75 25.5H3.25ZM3.25 23H20.75V10.5H3.25V23Z" fill="white"/>
</svg>
