<svg width="50" height="48" viewBox="0 0 50 48" fill="none" xmlns="http://www.w3.org/2000/svg">
<path fill-rule="evenodd" clip-rule="evenodd" d="M25 2.21877C12.3854 2.21877 2.17292 12.3792 2.17292 24.8917C2.17292 34.0792 7.67917 41.9854 15.6042 45.5417C16.4333 45.9146 17.2438 45.7667 17.8771 45.2917C18.2273 45.0189 18.5097 44.6688 18.702 44.2687C18.8942 43.8685 18.9913 43.4293 18.9854 42.9854V41.7979L16.1583 41.4146C16.1374 41.4118 16.1166 41.4083 16.0958 41.4042C14.5375 41.1 13.4854 40.5521 12.7146 39.7625C12.0667 39.0979 11.6708 38.3021 11.3354 37.6271L11.2188 37.3917C10.9087 36.7451 10.5702 36.1125 10.2042 35.4959C9.92292 35.05 9.70417 34.8209 9.4875 34.6771C8.9375 34.3125 8.40833 33.6938 8.40833 32.9209C8.40645 32.6984 8.45408 32.4783 8.54777 32.2765C8.64145 32.0747 8.77885 31.8963 8.95 31.7542C9.27303 31.4984 9.67562 31.3642 10.0875 31.375C10.55 31.375 10.9854 31.5167 11.3479 31.6792C11.7187 31.8459 12.0875 32.0667 12.4312 32.2959C13.2687 32.8542 14.0937 33.5146 14.7917 34.3292C15.5187 35.175 16.0333 35.7125 16.8083 35.8229C17.4458 35.9146 18.0958 35.9167 18.6021 35.8938C18.6724 35.493 18.7885 35.1015 18.9479 34.7271C18.3296 34.5828 17.7197 34.4048 17.1208 34.1938C15.7583 33.7104 14.2396 32.9584 13.2187 31.8188C12.0979 30.5646 11.4042 29.4459 11.0167 28.1375C10.6396 26.8625 10.5771 25.4813 10.5771 23.7813C10.5771 21.1771 11.7042 18.9834 12.55 17.8188C12.225 16.7992 11.9915 15.7527 11.8521 14.6917C11.7598 14.0226 11.7605 13.3439 11.8542 12.675C11.9583 12.0646 12.2187 11.3146 12.9042 10.8625C13.5646 10.4229 14.3396 10.4417 14.9437 10.5542C15.5708 10.6729 16.2229 10.9334 16.8229 11.2313C17.8 11.7146 18.7708 12.3604 19.4979 12.9084C20.7521 12.5396 22.9708 12.0646 24.9771 12.0209H25.0229C27.0312 12.0646 29.15 12.5396 30.3729 12.9063C31.1021 12.3604 32.0708 11.7125 33.0458 11.2313C33.6458 10.9334 34.2958 10.6729 34.925 10.5542C35.5292 10.4417 36.3042 10.4229 36.9667 10.8604C37.65 11.3146 37.9125 12.0646 38.0146 12.675C38.1208 13.3104 38.0958 14.0209 38.0146 14.6917C37.8758 15.7526 37.643 16.7991 37.3187 17.8188C38.1646 18.9854 39.2917 21.1792 39.2917 23.7813C39.2917 25.4813 39.2292 26.8625 38.8542 28.1354C38.4646 29.4479 37.7708 30.5646 36.65 31.8188C35.6292 32.9584 34.1104 33.7104 32.7479 34.1938C32.0247 34.448 31.2856 34.6547 30.5354 34.8125C30.7917 35.5875 30.8833 36.2146 30.8833 36.575V43.0125C30.8833 43.9917 31.3396 44.8271 31.9875 45.3146C32.6167 45.7917 33.425 45.9396 34.2542 45.5771C42.2542 42.0521 47.825 34.125 47.825 24.8896C47.825 12.3792 37.6167 2.21877 25 2.21877ZM19.7417 37.9792H19.7333L19.7167 37.9834L19.6563 37.9917C19.3468 38.028 19.0362 38.0538 18.725 38.0688C17.9835 38.1074 17.2401 38.0774 16.5042 37.9792C14.8562 37.7459 13.8542 36.5792 13.2062 35.8209L13.1437 35.75C12.9319 35.5043 12.7043 35.2725 12.4625 35.0563C12.6771 35.4521 12.9 35.8938 13.1396 36.3688L13.1604 36.4104L13.2667 36.6271C13.6312 37.3521 13.8708 37.8354 14.2687 38.2396C14.6562 38.6354 15.2604 39.0188 16.4812 39.2604L20.2187 39.7667C20.4798 39.802 20.7191 39.9309 20.8923 40.1294C21.0655 40.3278 21.1608 40.5824 21.1604 40.8459V42.9854C21.1604 44.6521 20.3792 46.1375 19.1812 47.0375C18.5523 47.5181 17.8041 47.8179 17.0174 47.9045C16.2306 47.9911 15.4351 47.8614 14.7167 47.5292C6.04583 43.6396 0 34.9792 0 24.8917C0 11.1584 11.2021 0.041687 25 0.041687C38.7979 0.041687 50 11.1584 50 24.8917C50 35.0313 43.8771 43.7146 35.1313 47.5709C34.4122 47.8967 33.6181 48.021 32.8339 47.9303C32.0497 47.8397 31.3049 47.5376 30.6792 47.0563C30.0605 46.58 29.5605 45.9668 29.2186 45.2648C28.8767 44.5629 28.702 43.7912 28.7083 43.0104V36.5729C28.7083 36.4271 28.6062 35.5854 28.0375 34.4542C27.959 34.2973 27.9194 34.1239 27.9222 33.9485C27.925 33.7731 27.9699 33.6009 28.0533 33.4466C28.1367 33.2923 28.2561 33.1603 28.4013 33.0619C28.5465 32.9635 28.7133 32.9016 28.8875 32.8813C29.9556 32.7474 31.0061 32.4987 32.0208 32.1396C33.2583 31.7021 34.3687 31.1021 35.0292 30.3646C36.0104 29.2688 36.5 28.4271 36.7687 27.5167C37.0479 26.5729 37.1187 25.475 37.1187 23.7813C37.1187 21.4042 35.8687 19.4063 35.2937 18.7625C35.1632 18.617 35.0742 18.4391 35.0361 18.2474C34.998 18.0557 35.0121 17.8573 35.0771 17.6729C35.4474 16.6233 35.7092 15.5385 35.8583 14.4354C35.925 13.8625 35.9292 13.3834 35.8708 13.0375C35.8578 12.9111 35.8195 12.7885 35.7583 12.6771C35.6149 12.6523 35.4678 12.6587 35.3271 12.6959C34.9729 12.7625 34.5208 12.9292 34.0083 13.1834C32.9875 13.6875 31.925 14.4334 31.2667 14.9667C31.1215 15.0845 30.9483 15.1627 30.7639 15.1937C30.5796 15.2247 30.3903 15.2075 30.2146 15.1438C28.5278 14.592 26.7732 14.2744 25 14.2C22.9021 14.25 20.4812 14.8459 19.6542 15.1438C19.4784 15.2075 19.2892 15.2247 19.1048 15.1937C18.9205 15.1627 18.7473 15.0845 18.6021 14.9667C17.7507 14.2813 16.8321 13.6838 15.8604 13.1834C15.4432 12.9642 14.9991 12.8004 14.5396 12.6959C14.3995 12.659 14.2532 12.6526 14.1104 12.6771C14.0492 12.7885 14.0109 12.9111 13.9979 13.0375C13.9396 13.3834 13.9437 13.8625 14.0104 14.4354C14.1606 15.5383 14.4223 16.623 14.7917 17.6729C14.9229 18.0479 14.8417 18.4646 14.575 18.7625C14 19.4063 12.75 21.4042 12.75 23.7813C12.75 25.4729 12.8208 26.5729 13.1 27.5167C13.3708 28.4271 13.8583 29.2667 14.8375 30.3646C15.5 31.1021 16.6083 31.7021 17.8479 32.1396C18.862 32.4985 19.9118 32.7471 20.9792 32.8813C21.1988 32.9048 21.406 32.9947 21.5732 33.1389C21.7405 33.2831 21.8599 33.4749 21.9155 33.6886C21.9712 33.9023 21.9604 34.1279 21.8847 34.3354C21.809 34.5429 21.6719 34.7224 21.4917 34.85C21.1479 35.0959 20.9208 35.5375 20.7937 36.0479C20.7281 36.3107 20.6891 36.5794 20.6771 36.85V36.8896C20.6797 37.1538 20.5863 37.4099 20.4143 37.6103C20.2422 37.8107 20.0032 37.9418 19.7417 37.9792Z" fill="#2E5F7E"/>
</svg>
