<svg width="41" height="42" viewBox="0 0 41 42" fill="none" xmlns="http://www.w3.org/2000/svg">
<path d="M40.4792 19.125H21.3751V24.8125H34.9376C34.2501 32.75 27.6459 36.1459 21.3959 36.1459C13.4167 36.1459 6.41675 29.8542 6.41675 21C6.41675 12.4584 13.0834 5.85419 21.4167 5.85419C27.8542 5.85419 31.6251 9.95835 31.6251 9.95835L35.5834 5.83335C35.5834 5.83335 30.5001 0.166687 21.2084 0.166687C9.37508 0.166687 0.229248 10.1667 0.229248 21C0.229248 31.5209 8.83341 41.8334 21.5209 41.8334C32.6667 41.8334 40.7917 34.1875 40.7917 22.8959C40.7917 20.5 40.4792 19.125 40.4792 19.125Z" fill="#2E5F7E"/>
</svg>
