<svg width="62" height="64" viewBox="0 0 62 64" fill="none" xmlns="http://www.w3.org/2000/svg">
<path d="M17.98 0H44.02C53.94 0 62 8.32 62 18.56V45.44C62 50.3624 60.1057 55.0832 56.7338 58.5639C53.3619 62.0446 48.7886 64 44.02 64H17.98C8.06 64 0 55.68 0 45.44V18.56C0 13.6376 1.89432 8.91677 5.26622 5.4361C8.63812 1.95542 13.2114 0 17.98 0ZM17.36 6.4C14.4002 6.4 11.5616 7.61371 9.46869 9.77413C7.37578 11.9345 6.2 14.8647 6.2 17.92V46.08C6.2 52.448 11.191 57.6 17.36 57.6H44.64C47.5998 57.6 50.4384 56.3863 52.5313 54.2259C54.6242 52.0655 55.8 49.1353 55.8 46.08V17.92C55.8 11.552 50.809 6.4 44.64 6.4H17.36ZM47.275 11.2C48.3027 11.2 49.2883 11.6214 50.015 12.3716C50.7417 13.1217 51.15 14.1391 51.15 15.2C51.15 16.2609 50.7417 17.2783 50.015 18.0284C49.2883 18.7786 48.3027 19.2 47.275 19.2C46.2473 19.2 45.2617 18.7786 44.535 18.0284C43.8083 17.2783 43.4 16.2609 43.4 15.2C43.4 14.1391 43.8083 13.1217 44.535 12.3716C45.2617 11.6214 46.2473 11.2 47.275 11.2ZM31 16C35.1109 16 39.0533 17.6857 41.9602 20.6863C44.867 23.6869 46.5 27.7565 46.5 32C46.5 36.2435 44.867 40.3131 41.9602 43.3137C39.0533 46.3143 35.1109 48 31 48C26.8891 48 22.9467 46.3143 20.0398 43.3137C17.133 40.3131 15.5 36.2435 15.5 32C15.5 27.7565 17.133 23.6869 20.0398 20.6863C22.9467 17.6857 26.8891 16 31 16ZM31 22.4C28.5335 22.4 26.168 23.4114 24.4239 25.2118C22.6798 27.0121 21.7 29.4539 21.7 32C21.7 34.5461 22.6798 36.9879 24.4239 38.7882C26.168 40.5886 28.5335 41.6 31 41.6C33.4665 41.6 35.832 40.5886 37.5761 38.7882C39.3202 36.9879 40.3 34.5461 40.3 32C40.3 29.4539 39.3202 27.0121 37.5761 25.2118C35.832 23.4114 33.4665 22.4 31 22.4Z" fill="#4F93CF"/>
</svg>
