<svg width="100" height="101" viewBox="0 0 100 101" fill="none" xmlns="http://www.w3.org/2000/svg">
<path d="M50.0001 27.1667C53.0943 27.1667 56.0617 28.3958 58.2497 30.5838C60.4376 32.7717 61.6667 35.7392 61.6667 38.8334C61.6667 41.9275 60.4376 44.895 58.2497 47.0829C56.0617 49.2709 53.0943 50.5 50.0001 50.5C46.9059 50.5 43.9384 49.2709 41.7505 47.0829C39.5626 44.895 38.3334 41.9275 38.3334 38.8334C38.3334 35.7392 39.5626 32.7717 41.7505 30.5838C43.9384 28.3958 46.9059 27.1667 50.0001 27.1667ZM50.0001 56.3334C62.8917 56.3334 73.3334 61.5542 73.3334 68V73.8334H26.6667V68C26.6667 61.5542 37.1084 56.3334 50.0001 56.3334Z" fill="url(#paint0_linear_2_49)"/>
<circle cx="50" cy="50.5" r="49" stroke="#EB5051" stroke-width="2"/>
<defs>
<linearGradient id="paint0_linear_2_49" x1="50.0001" y1="27.1667" x2="50.0001" y2="73.8334" gradientUnits="userSpaceOnUse">
<stop stop-color="#EB5051"/>
<stop offset="1" stop-color="#FBDB18"/>
</linearGradient>
</defs>
</svg>
