<svg width="358" height="346" viewBox="0 0 358 346" fill="none" xmlns="http://www.w3.org/2000/svg">
<path d="M246.125 129.75C246.125 146.956 239.053 163.457 226.465 175.624C213.876 187.79 196.803 194.625 179 194.625C161.197 194.625 144.124 187.79 131.535 175.624C118.947 163.457 111.875 146.956 111.875 129.75C111.875 112.544 118.947 96.0429 131.535 83.8764C144.124 71.71 161.197 64.875 179 64.875C196.803 64.875 213.876 71.71 226.465 83.8764C239.053 96.0429 246.125 112.544 246.125 129.75Z" fill="white"/>
<path fill-rule="evenodd" clip-rule="evenodd" d="M0 173C0 127.118 18.8589 83.1143 52.4279 50.6705C85.9969 18.2267 131.526 0 179 0C226.474 0 272.003 18.2267 305.572 50.6705C339.141 83.1143 358 127.118 358 173C358 218.882 339.141 262.886 305.572 295.329C272.003 327.773 226.474 346 179 346C131.526 346 85.9969 327.773 52.4279 295.329C18.8589 262.886 0 218.882 0 173ZM179 21.625C149.505 21.6265 120.609 29.6773 95.6398 44.8509C70.6701 60.0244 50.641 81.7038 37.8577 107.394C25.0744 133.084 20.0566 161.741 23.3818 190.066C26.707 218.39 38.2401 245.232 56.6535 267.501C72.5398 242.762 107.512 216.25 179 216.25C250.488 216.25 285.438 242.741 301.347 267.501C319.76 245.232 331.293 218.39 334.618 190.066C337.943 161.741 332.926 133.084 320.142 107.394C307.359 81.7038 287.33 60.0244 262.36 44.8509C237.391 29.6773 208.495 21.6265 179 21.625Z" fill="white"/>
</svg>
