<svg width="50" height="50" viewBox="0 0 50 50" fill="none" xmlns="http://www.w3.org/2000/svg">
<path d="M24.9998 45.8334C22.1526 45.8334 19.4616 45.2861 16.9269 44.1917C14.3922 43.0972 12.1783 41.6042 10.2853 39.7125C8.39359 37.8209 6.90053 35.6077 5.80609 33.0729C4.71165 30.5382 4.16512 27.8472 4.16651 25C4.16651 22.1181 4.71373 19.4181 5.80817 16.9C6.90262 14.382 8.39567 12.1778 10.2873 10.2875C12.179 8.39447 14.3915 6.90141 16.9248 5.80835C19.4582 4.7153 22.1498 4.16808 24.9998 4.16669C27.8818 4.16669 30.5818 4.71391 33.0998 5.80835C35.6179 6.9028 37.8221 8.39585 39.7123 10.2875C41.6054 12.1792 43.0985 14.384 44.1915 16.9021C45.2846 19.4202 45.8318 22.1195 45.8332 25C45.8332 27.8472 45.286 30.5382 44.1915 33.0729C43.0971 35.6077 41.604 37.8215 39.7123 39.7146C37.8207 41.6063 35.6158 43.0993 33.0978 44.1938C30.5797 45.2882 27.8804 45.8347 24.9998 45.8334ZM24.9998 41.5625C25.9026 40.3125 26.6839 39.0104 27.3436 37.6563C28.0033 36.3021 28.5415 34.8611 28.9582 33.3334H21.0415C21.4582 34.8611 21.9964 36.3021 22.6561 37.6563C23.3158 39.0104 24.0971 40.3125 24.9998 41.5625ZM19.5832 40.7292C18.9582 39.5834 18.411 38.3938 17.9415 37.1604C17.4721 35.9271 17.0818 34.6514 16.7707 33.3334H10.6248C11.6318 35.0695 12.8908 36.5799 14.4019 37.8646C15.913 39.1493 17.6401 40.1042 19.5832 40.7292ZM30.4165 40.7292C32.361 40.1042 34.0887 39.1493 35.5998 37.8646C37.1109 36.5799 38.3693 35.0695 39.3748 33.3334H33.229C32.9165 34.6528 32.5262 35.9292 32.0582 37.1625C31.5901 38.3959 31.0429 39.5847 30.4165 40.7292ZM8.85401 29.1667H15.9373C15.8332 28.4722 15.7547 27.7861 15.7019 27.1084C15.6491 26.4306 15.6235 25.7278 15.6248 25C15.6248 24.2709 15.6512 23.5681 15.704 22.8917C15.7568 22.2153 15.8346 21.5292 15.9373 20.8334H8.85401C8.6804 21.5278 8.54984 22.2139 8.46234 22.8917C8.37484 23.5695 8.33178 24.2722 8.33317 25C8.33317 25.7292 8.37692 26.432 8.46442 27.1084C8.55192 27.7847 8.68178 28.4709 8.85401 29.1667ZM20.104 29.1667H29.8957C29.9998 28.4722 30.0783 27.7861 30.1311 27.1084C30.1839 26.4306 30.2096 25.7278 30.2082 25C30.2082 24.2709 30.1818 23.5681 30.129 22.8917C30.0762 22.2153 29.9985 21.5292 29.8957 20.8334H20.104C19.9998 21.5278 19.9214 22.2139 19.8686 22.8917C19.8158 23.5695 19.7901 24.2722 19.7915 25C19.7915 25.7292 19.8179 26.432 19.8707 27.1084C19.9235 27.7847 20.0012 28.4709 20.104 29.1667ZM34.0623 29.1667H41.1457C41.3193 28.4722 41.4498 27.7861 41.5373 27.1084C41.6248 26.4306 41.6679 25.7278 41.6665 25C41.6665 24.2709 41.6228 23.5681 41.5353 22.8917C41.4478 22.2153 41.3179 21.5292 41.1457 20.8334H34.0623C34.1665 21.5278 34.245 22.2139 34.2978 22.8917C34.3505 23.5695 34.3762 24.2722 34.3748 25C34.3748 25.7292 34.3484 26.432 34.2957 27.1084C34.2429 27.7847 34.1651 28.4709 34.0623 29.1667ZM33.229 16.6667H39.3748C38.3679 14.9306 37.1096 13.4202 35.5998 12.1354C34.0901 10.8507 32.3623 9.89585 30.4165 9.27085C31.0415 10.4167 31.5887 11.6063 32.0582 12.8396C32.5276 14.0729 32.9179 15.3486 33.229 16.6667ZM21.0415 16.6667H28.9582C28.5415 15.1389 28.0033 13.6979 27.3436 12.3438C26.6839 10.9896 25.9026 9.68752 24.9998 8.43752C24.0971 9.68752 23.3158 10.9896 22.6561 12.3438C21.9964 13.6979 21.4582 15.1389 21.0415 16.6667ZM10.6248 16.6667H16.7707C17.0832 15.3472 17.4741 14.0709 17.9436 12.8375C18.413 11.6042 18.9596 10.4153 19.5832 9.27085C17.6387 9.89585 15.911 10.8507 14.3998 12.1354C12.8887 13.4202 11.6304 14.9306 10.6248 16.6667Z" fill="#2E5F7E"/>
</svg>
