<svg width="50" height="50" viewBox="0 0 50 50" fill="none" xmlns="http://www.w3.org/2000/svg">
<path d="M22.9165 18.75H27.0832V14.5834H22.9165M24.9998 41.6667C15.8123 41.6667 8.33317 34.1875 8.33317 25C8.33317 15.8125 15.8123 8.33335 24.9998 8.33335C34.1873 8.33335 41.6665 15.8125 41.6665 25C41.6665 34.1875 34.1873 41.6667 24.9998 41.6667ZM24.9998 4.16669C22.264 4.16669 19.5549 4.70556 17.0273 5.75253C14.4996 6.7995 12.203 8.33408 10.2684 10.2686C6.36144 14.1756 4.1665 19.4747 4.1665 25C4.1665 30.5254 6.36144 35.8244 10.2684 39.7314C12.203 41.666 14.4996 43.2005 17.0273 44.2475C19.5549 45.2945 22.264 45.8334 24.9998 45.8334C30.5252 45.8334 35.8242 43.6384 39.7312 39.7314C43.6382 35.8244 45.8332 30.5254 45.8332 25C45.8332 22.2641 45.2943 19.5551 44.2473 17.0274C43.2004 14.4998 41.6658 12.2032 39.7312 10.2686C37.7967 8.33408 35.5 6.7995 32.9724 5.75253C30.4448 4.70556 27.7357 4.16669 24.9998 4.16669ZM22.9165 35.4167H27.0832V22.9167H22.9165V35.4167Z" fill="#2E5F7E"/>
</svg>
