<svg width="50" height="52" viewBox="0 0 50 52" fill="none" xmlns="http://www.w3.org/2000/svg">
<path d="M44.4444 25.6416C44.4444 20.0859 42.5574 15.3726 38.7833 11.5017C35.0093 7.63075 30.4148 5.69623 25 5.69813V0C28.4722 0 31.725 0.677128 34.7583 2.03138C37.7917 3.38564 40.4306 5.21284 42.675 7.51299C44.9194 9.81693 46.7019 12.5235 48.0222 15.6328C49.3426 18.7421 50.0019 22.0784 50 25.6416H44.4444ZM33.3333 25.6416C33.3333 23.2674 32.5231 21.2493 30.9028 19.5873C29.2824 17.9254 27.3148 17.0944 25 17.0944V11.3963C28.8426 11.3963 32.1185 12.7857 34.8278 15.5644C37.537 18.3432 38.8907 21.7023 38.8889 25.6416H33.3333ZM47.0833 51.2832C41.1111 51.2832 35.2889 49.9299 29.6167 47.2233C23.9444 44.5167 18.9213 40.9078 14.5472 36.3968C10.1732 31.8858 6.65463 26.7214 3.99167 20.9036C1.32871 15.0858 -0.00184992 9.11511 1.93035e-06 2.99152V1.49576C1.93035e-06 0.973431 0.0462981 0.474844 0.138891 0H16.3889L18.9583 14.3166L11.0417 22.5076C12.9861 25.9265 15.4287 29.1317 18.3694 32.1232C21.3102 35.1147 24.5389 37.7026 28.0556 39.8869L36.1111 31.6246L50 34.4737V51.1407C49.537 51.1882 49.0509 51.2243 48.5417 51.249C48.0324 51.2737 47.5463 51.2851 47.0833 51.2832ZM8.40278 17.0944L12.9861 12.3934L11.8056 5.69813H5.625C5.85648 7.64499 6.18056 9.56811 6.59722 11.4675C7.01389 13.3669 7.61574 15.2425 8.40278 17.0944ZM33.2639 42.5935C35.0694 43.4008 36.9102 44.0418 38.7861 44.5167C40.662 44.9915 42.5481 45.3001 44.4444 45.4426V39.1747L37.9167 37.8213L33.2639 42.5935Z" fill="#4F93CF"/>
</svg>
