<svg width="50" height="50" viewBox="0 0 50 50" fill="none" xmlns="http://www.w3.org/2000/svg">
<path d="M25 25.0001C26.1459 25.0001 27.1271 24.5917 27.9438 23.7751C28.7605 22.9584 29.1681 21.9779 29.1667 20.8334C29.1667 19.6876 28.7584 18.7063 27.9417 17.8897C27.125 17.073 26.1445 16.6654 25 16.6667C23.8542 16.6667 22.873 17.0751 22.0563 17.8917C21.2396 18.7084 20.832 19.689 20.8334 20.8334C20.8334 21.9792 21.2417 22.9605 22.0584 23.7772C22.875 24.5938 23.8556 25.0015 25 25.0001ZM25 40.3126C29.2362 36.4237 32.3785 32.8904 34.4271 29.7126C36.4757 26.5348 37.5 23.714 37.5 21.2501C37.5 17.4654 36.2931 14.3667 33.8792 11.9542C31.4653 9.54175 28.5056 8.3348 25 8.33341C21.4931 8.33341 18.5327 9.54036 16.1188 11.9542C13.7049 14.3681 12.4987 17.4667 12.5 21.2501C12.5 23.7154 13.5243 26.5369 15.573 29.7147C17.6216 32.8924 20.7639 36.4251 25 40.3126ZM25 45.8334C19.4098 41.0765 15.2348 36.6584 12.475 32.5792C9.71532 28.5001 8.33476 24.7237 8.33337 21.2501C8.33337 16.0417 10.0091 11.8924 13.3605 8.80216C16.7118 5.71189 20.5917 4.16675 25 4.16675C29.4098 4.16675 33.2903 5.71189 36.6417 8.80216C39.9931 11.8924 41.6681 16.0417 41.6667 21.2501C41.6667 24.7223 40.2861 28.4987 37.525 32.5792C34.7639 36.6598 30.5889 41.0779 25 45.8334Z" fill="#E8334E"/>
</svg>
