<svg width="49" height="60" viewBox="0 0 49 60" fill="none" xmlns="http://www.w3.org/2000/svg">
<path d="M24.5 30C26.1844 30 27.6268 29.412 28.8273 28.236C30.0278 27.06 30.627 25.648 30.625 24C30.625 22.35 30.0247 20.937 28.8242 19.761C27.6237 18.585 26.1823 17.998 24.5 18C22.8156 18 21.3732 18.588 20.1727 19.764C18.9722 20.94 18.373 22.352 18.375 24C18.375 25.65 18.9753 27.063 20.1758 28.239C21.3763 29.415 22.8177 30.002 24.5 30ZM24.5 52.05C30.7271 46.45 35.3464 41.362 38.3578 36.786C41.3693 32.21 42.875 28.148 42.875 24.6C42.875 19.15 41.1008 14.688 37.5524 11.214C34.004 7.74 29.6532 6.002 24.5 6C19.3448 6 14.993 7.738 11.4446 11.214C7.89615 14.69 6.12296 19.152 6.125 24.6C6.125 28.15 7.63073 32.213 10.6422 36.789C13.6536 41.365 18.2729 46.452 24.5 52.05ZM24.5 60C16.2823 53.15 10.145 46.788 6.08825 40.914C2.03146 35.04 0.00204167 29.602 0 24.6C0 17.1 2.46327 11.125 7.38981 6.675C12.3164 2.225 18.0198 0 24.5 0C30.9823 0 36.6867 2.225 41.6132 6.675C46.5398 11.125 49.002 17.1 49 24.6C49 29.6 46.9706 35.038 42.9117 40.914C38.8529 46.79 32.7157 53.152 24.5 60Z" fill="#4F93CF"/>
</svg>
