<svg width="42" height="42" viewBox="0 0 42 42" fill="none" xmlns="http://www.w3.org/2000/svg">
<path d="M20.9998 36C15.7915 36 11.1873 33.3334 8.49984 29.3334C8.56234 25.1667 16.8332 22.875 20.9998 22.875C25.1665 22.875 33.4373 25.1667 33.4998 29.3334C32.1225 31.3842 30.262 33.0649 28.0823 34.2275C25.9025 35.39 23.4703 35.9987 20.9998 36ZM20.9998 6.41669C22.6574 6.41669 24.2472 7.07517 25.4193 8.24727C26.5914 9.41937 27.2498 11.0091 27.2498 12.6667C27.2498 14.3243 26.5914 15.914 25.4193 17.0861C24.2472 18.2582 22.6574 18.9167 20.9998 18.9167C19.3422 18.9167 17.7525 18.2582 16.5804 17.0861C15.4083 15.914 14.7498 14.3243 14.7498 12.6667C14.7498 11.0091 15.4083 9.41937 16.5804 8.24727C17.7525 7.07517 19.3422 6.41669 20.9998 6.41669ZM20.9998 0.166687C18.264 0.166687 15.5549 0.705557 13.0273 1.75253C10.4996 2.7995 8.203 4.33407 6.26845 6.26863C2.36144 10.1756 0.166504 15.4747 0.166504 21C0.166504 26.5254 2.36144 31.8244 6.26845 35.7314C8.203 37.666 10.4996 39.2005 13.0273 40.2475C15.5549 41.2945 18.264 41.8334 20.9998 41.8334C26.5252 41.8334 31.8242 39.6384 35.7312 35.7314C39.6382 31.8244 41.8332 26.5254 41.8332 21C41.8332 9.47919 32.4582 0.166687 20.9998 0.166687Z" fill="white"/>
</svg>
