<svg width="66" height="54" viewBox="0 0 66 54" fill="none" xmlns="http://www.w3.org/2000/svg">
<path d="M66 6.35294C63.5707 7.46471 60.9522 8.19529 58.239 8.54471C61.0153 6.86118 63.1606 4.19294 64.1702 0.984706C61.5516 2.57294 58.6491 3.68471 55.5889 4.32C53.0966 1.58824 49.5947 0 45.6195 0C38.2056 0 32.1482 6.09882 32.1482 13.6271C32.1482 14.7071 32.2744 15.7553 32.4952 16.74C21.2639 16.1682 11.2629 10.7365 4.60612 2.50941C3.43881 4.51059 2.77629 6.86118 2.77629 9.33882C2.77629 14.0718 5.14245 18.2647 8.8021 20.6471C6.56214 20.6471 4.47992 20.0118 2.6501 19.0588V19.1541C2.6501 25.7612 7.31931 31.2882 13.5029 32.5271C11.5176 33.0741 9.43338 33.1502 7.41396 32.7494C8.27084 35.4573 9.94902 37.8267 12.2126 39.5246C14.4761 41.2225 17.2113 42.1635 20.0335 42.2153C15.2495 46.0285 9.31949 48.0896 3.21797 48.06C2.14532 48.06 1.07266 47.9965 0 47.8694C5.99426 51.7447 13.1243 54 20.7591 54C45.6195 54 59.2801 33.2259 59.2801 15.2153C59.2801 14.6118 59.2801 14.04 59.2486 13.4365C61.8987 11.5306 64.1702 9.11647 66 6.35294Z" fill="#4F93CF"/>
</svg>
