<svg width="18" height="18" viewBox="0 0 18 18" fill="none" xmlns="http://www.w3.org/2000/svg">
<path d="M6.50008 17.3333C6.27907 17.3333 6.06711 17.2455 5.91083 17.0892C5.75455 16.9329 5.66675 16.721 5.66675 16.5V14H2.33341C1.89139 14 1.46746 13.8244 1.1549 13.5118C0.842343 13.1992 0.666748 12.7753 0.666748 12.3333V2.33329C0.666748 1.89127 0.842343 1.46734 1.1549 1.15478C1.46746 0.842221 1.89139 0.666626 2.33341 0.666626H15.6667C16.1088 0.666626 16.5327 0.842221 16.8453 1.15478C17.1578 1.46734 17.3334 1.89127 17.3334 2.33329V12.3333C17.3334 12.7753 17.1578 13.1992 16.8453 13.5118C16.5327 13.8244 16.1088 14 15.6667 14H10.5834L7.50008 17.0916C7.33341 17.25 7.12508 17.3333 6.91675 17.3333H6.50008Z" fill="#EB5051"/>
</svg>
