<svg width="510" height="506" viewBox="0 0 510 506" fill="none" xmlns="http://www.w3.org/2000/svg">
<g clip-path="url(#clip0_12_6)">
<path d="M340.151 132.849C341.659 124.189 334.085 116.672 325.437 118.245L319.472 119.331C316.71 119.833 314.116 121.017 311.927 122.776L283.721 145.435C266.478 159.287 242.182 160.164 223.984 147.591L192.966 126.158C179.626 119.443 166.565 136.168 176.857 146.99L212.257 193.685C217.728 200.902 218.374 210.684 213.899 218.557L188.855 262.615C181.697 275.21 197.252 288.392 208.501 279.264C209.052 278.817 209.638 278.416 210.254 278.064L237.647 262.404C254.889 252.548 276.329 253.831 292.273 265.672L330.9 294.359C343.085 302.158 356.728 286.919 348.349 275.125L319.103 228.502C309.717 213.541 308.921 194.738 317.009 179.036L338.935 136.469C339.522 135.331 339.932 134.11 340.151 132.849Z" fill="#E8334E"/>
</g>
<defs>
<clipPath id="clip0_12_6">
<rect x="221.532" width="388.688" height="329.709" rx="12" transform="rotate(42.214 221.532 0)" fill="white"/>
</clipPath>
</defs>
</svg>
