<svg width="394" height="436" viewBox="0 0 394 436" fill="none" xmlns="http://www.w3.org/2000/svg">
<g clip-path="url(#clip0_12_8)">
<path d="M264.469 90.8821C266.215 83.8908 259.037 78.0222 252.532 81.123L247.05 83.7363C245.775 84.3438 244.625 85.183 243.658 86.211L215.653 115.966C200.641 131.916 176.996 136.239 157.313 126.633L144.136 120.202C143.32 119.803 142.467 119.486 141.59 119.254L139.496 118.7C126.091 115.152 116.803 131.829 126.878 141.357C127.403 141.854 127.887 142.392 128.325 142.967L153.023 175.367C156.897 180.448 157.423 187.332 154.367 192.943L128.128 241.114C122.943 250.632 135.571 259.748 142.974 251.831L166.684 231.614C182.514 218.116 205.048 215.831 223.266 225.875L242.644 236.559C255.406 242.001 267.331 227.349 259.412 215.958L258.859 215.162L241.972 186.209C233.413 171.534 232.891 153.517 240.585 138.371L263.799 92.6778C264.089 92.1063 264.314 91.5039 264.469 90.8821Z" fill="#E30A81"/>
</g>
<defs>
<clipPath id="clip0_12_8">
<rect x="177.863" width="271.189" height="340.842" rx="12" transform="rotate(37.1558 177.863 0)" fill="white"/>
</clipPath>
</defs>
</svg>
