<svg width="152" height="160" viewBox="0 0 152 160" fill="none" xmlns="http://www.w3.org/2000/svg">
<g clip-path="url(#clip0_25_51)">
<path d="M103.035 34.7044C103.571 32.0732 100.999 29.8891 98.609 30.9452L96.692 31.7923C96.1685 32.0236 95.696 32.361 95.3022 32.7848L89.1549 39.4002C81.9598 47.1432 70.6638 49.0674 61.3371 44.1387L59.7989 43.3259C59.5427 43.1905 59.2754 43.0793 59.0002 42.9936L58.4264 42.8149C53.7506 41.3583 50.4288 47.3996 54.0141 50.8395C54.1826 51.0011 54.3392 51.1753 54.4828 51.3607L64.0087 63.6635C65.5121 65.6051 65.7677 68.2714 64.6599 70.4559L56.1059 87.3235C54.2505 90.9822 58.9306 94.4665 61.6869 91.4785L62.7761 90.5584C72.6162 82.2459 86.4498 81.0898 97.5844 87.6495C102.007 89.7237 106.165 84.4096 103.284 80.3653L103.103 80.1103C95.6709 67.8874 94.7753 52.5418 100.82 39.6505L102.785 35.4607C102.898 35.2202 102.982 34.9663 103.035 34.7044Z" fill="#2E5F7E"/>
</g>
<defs>
<clipPath id="clip0_25_51">
<rect width="103.203" height="118.615" rx="12" transform="matrix(0.786741 0.617283 -0.590643 0.806933 70.0593 0)" fill="white"/>
</clipPath>
</defs>
</svg>
