<svg width="153" height="161" viewBox="0 0 153 161" fill="none" xmlns="http://www.w3.org/2000/svg">
<g clip-path="url(#clip0_25_53)">
<path d="M104.014 35.4766C104.55 32.8455 101.978 30.6613 99.5881 31.7175L97.6712 32.5645C97.1476 32.7958 96.6751 33.1333 96.2813 33.5571L90.134 40.1725C82.9389 47.9154 71.6429 49.8396 62.3162 44.911L60.7781 44.0982C60.5219 43.9628 60.2545 43.8516 59.9793 43.7658L59.4055 43.5871C54.7297 42.1306 51.4079 48.1719 54.9933 51.6117C55.1617 51.7733 55.3183 51.9475 55.4619 52.133L64.9878 64.4357C66.4912 66.3774 66.7469 69.0437 65.639 71.2282L57.085 88.0958C55.2296 91.7545 59.9097 95.2388 62.666 92.2508L63.7552 91.3306C73.5953 83.0181 87.4289 81.8621 98.5635 88.4217C102.986 90.4959 107.144 85.1818 104.264 81.1375L104.082 80.8825C96.65 68.6596 95.7544 53.314 101.799 40.4228L103.764 36.2329C103.877 35.9925 103.961 35.7385 104.014 35.4766Z" fill="url(#paint0_linear_25_53)"/>
</g>
<defs>
<linearGradient id="paint0_linear_25_53" x1="105.293" y1="29.1967" x2="42.9327" y2="108.676" gradientUnits="userSpaceOnUse">
<stop stop-color="#EB5051"/>
<stop offset="1" stop-color="#FBDB18"/>
</linearGradient>
<clipPath id="clip0_25_53">
<rect width="103.203" height="118.615" rx="12" transform="matrix(0.786741 0.617283 -0.590643 0.806933 71.0385 0.772278)" fill="white"/>
</clipPath>
</defs>
</svg>
