<svg width="447" height="444" viewBox="0 0 447 444" fill="none" xmlns="http://www.w3.org/2000/svg">
<g clip-path="url(#clip0_12_10)">
<path d="M294.363 103.845C295.397 96.1767 288.033 90.0818 280.693 92.5304L275.354 94.3115C273.316 94.9916 271.462 96.1329 269.937 97.6466L247.123 120.29C231.412 135.884 207.316 139.291 187.897 128.664L166.264 116.826C165.705 116.52 165.123 116.257 164.523 116.04C151.637 111.373 141.729 127.884 151.932 137.035L184.223 174.2C189.239 179.972 190.328 188.18 186.991 195.062L165.931 238.496C160.527 249.64 174.83 259.811 183.582 251.048C183.962 250.668 184.368 250.316 184.799 249.996L206.011 234.222C222.241 222.152 244.145 221.05 261.505 231.43L290.98 249.053C302.896 254.977 314.494 240.504 306.117 230.165L305.691 229.64L281.228 195.201C271.042 180.861 269.14 162.223 276.22 146.121L293.573 106.656C293.967 105.761 294.233 104.814 294.363 103.845Z" fill="#FBDB18"/>
</g>
<defs>
<clipPath id="clip0_12_10">
<rect x="186.769" width="325.525" height="309.227" rx="12" transform="rotate(37.1558 186.769 0)" fill="white"/>
</clipPath>
</defs>
</svg>
