<svg width="50" height="50" viewBox="0 0 50 50" fill="none" xmlns="http://www.w3.org/2000/svg">
<path d="M39.5833 25C39.5833 20.9375 38.1681 17.491 35.3375 14.6604C32.5069 11.8299 29.0611 10.4153 25 10.4167V6.25C27.6042 6.25 30.0438 6.74514 32.3188 7.73542C34.5938 8.72569 36.5729 10.0618 38.2563 11.7438C39.9396 13.4285 41.2764 15.4076 42.2667 17.6813C43.2569 19.9549 43.7514 22.3944 43.75 25H39.5833ZM31.25 25C31.25 23.2639 30.6424 21.7882 29.4271 20.5729C28.2118 19.3576 26.7361 18.75 25 18.75V14.5833C27.8819 14.5833 30.3389 15.5993 32.3708 17.6313C34.4028 19.6632 35.4181 22.1194 35.4167 25H31.25ZM41.5625 43.75C37.0833 43.75 32.7167 42.7604 28.4625 40.7812C24.2083 38.8021 20.441 36.1632 17.1604 32.8646C13.8799 29.566 11.241 25.7896 9.24375 21.5354C7.24653 17.2812 6.24861 12.9153 6.25 8.4375V7.34375C6.25 6.96181 6.28472 6.59722 6.35417 6.25H18.5417L20.4688 16.7187L14.5313 22.7083C15.9896 25.2083 17.8215 27.5521 20.0271 29.7396C22.2326 31.9271 24.6542 33.8194 27.2917 35.4167L33.3333 29.375L43.75 31.4583V43.6458C43.4028 43.6806 43.0382 43.7069 42.6562 43.725C42.2743 43.7431 41.9097 43.7514 41.5625 43.75ZM12.5521 18.75L15.9896 15.3125L15.1042 10.4167H10.4688C10.6424 11.8403 10.8854 13.2465 11.1979 14.6354C11.5104 16.0243 11.9618 17.3958 12.5521 18.75ZM31.1979 37.3958C32.5521 37.9861 33.9326 38.4549 35.3396 38.8021C36.7465 39.1493 38.1611 39.375 39.5833 39.4792V34.8958L34.6875 33.9062L31.1979 37.3958Z" fill="#E8334E"/>
</svg>
