<svg width="1419" height="933" viewBox="0 0 1419 933" fill="none" xmlns="http://www.w3.org/2000/svg">
<g clip-path="url(#clip0_25_91)">
<path d="M524.035 381.704C524.571 379.073 521.999 376.889 519.609 377.945L517.692 378.792C517.169 379.024 516.696 379.361 516.302 379.785L510.155 386.4C502.96 394.143 491.664 396.067 482.337 391.139L480.799 390.326C480.543 390.191 480.275 390.079 480 389.994L479.426 389.815C474.751 388.358 471.429 394.4 475.014 397.839C475.183 398.001 475.339 398.175 475.483 398.361L485.009 410.663C486.512 412.605 486.768 415.271 485.66 417.456L477.106 434.324C475.25 437.982 479.931 441.467 482.687 438.479L483.776 437.558C493.616 429.246 507.45 428.09 518.584 434.649C523.007 436.724 527.165 431.41 524.284 427.365L524.103 427.11C516.671 414.887 515.775 399.542 521.82 386.651L523.785 382.461C523.898 382.22 523.982 381.966 524.035 381.704Z" fill="#2E5F7E"/>
</g>
<g clip-path="url(#clip1_25_91)">
<path d="M209.014 65.4766C209.55 62.8455 206.978 60.6613 204.588 61.7175L202.671 62.5645C202.148 62.7958 201.675 63.1333 201.281 63.5571L195.134 70.1725C187.939 77.9154 176.643 79.8396 167.316 74.911L165.778 74.0982C165.522 73.9628 165.255 73.8516 164.979 73.7658L164.406 73.5871C159.73 72.1306 156.408 78.1719 159.993 81.6117C160.162 81.7733 160.318 81.9475 160.462 82.133L169.988 94.4357C171.491 96.3774 171.747 99.0437 170.639 101.228L162.085 118.096C160.23 121.754 164.91 125.239 167.666 122.251L168.755 121.331C178.595 113.018 192.429 111.862 203.564 118.422C207.986 120.496 212.144 115.182 209.264 111.138L209.082 110.883C201.65 98.6596 200.754 83.314 206.799 70.4228L208.764 66.2329C208.877 65.9925 208.961 65.7385 209.014 65.4766Z" fill="url(#paint0_linear_25_91)"/>
</g>
<g clip-path="url(#clip2_25_91)">
<path d="M761.151 132.849C762.659 124.189 755.085 116.672 746.437 118.245L740.472 119.331C737.71 119.833 735.116 121.017 732.927 122.776L704.721 145.435C687.478 159.287 663.182 160.164 644.984 147.591L613.966 126.158C600.626 119.443 587.565 136.168 597.857 146.99L633.257 193.685C638.728 200.902 639.374 210.684 634.899 218.557L609.855 262.615C602.697 275.21 618.252 288.392 629.501 279.264C630.052 278.817 630.638 278.416 631.254 278.064L658.647 262.404C675.889 252.548 697.329 253.831 713.273 265.672L751.9 294.359C764.085 302.158 777.728 286.919 769.349 275.125L740.103 228.502C730.717 213.541 729.921 194.738 738.009 179.036L759.935 136.469C760.522 135.331 760.932 134.11 761.151 132.849Z" fill="#E8334E"/>
</g>
<g clip-path="url(#clip3_25_91)">
<path d="M264.469 482.882C266.215 475.891 259.037 470.022 252.532 473.123L247.05 475.736C245.775 476.344 244.625 477.183 243.658 478.211L215.653 507.966C200.641 523.916 176.996 528.239 157.313 518.633L144.136 512.202C143.32 511.803 142.467 511.486 141.59 511.254L139.496 510.7C126.091 507.152 116.803 523.829 126.878 533.357C127.403 533.854 127.887 534.392 128.325 534.967L153.023 567.367C156.897 572.448 157.423 579.332 154.367 584.943L128.128 633.114C122.943 642.632 135.571 651.748 142.974 643.831L166.684 623.614C182.514 610.116 205.048 607.831 223.266 617.875L242.644 628.559C255.406 634.001 267.331 619.349 259.412 607.958L258.859 607.162L241.972 578.209C233.413 563.534 232.891 545.517 240.585 530.371L263.799 484.678C264.089 484.106 264.314 483.504 264.469 482.882Z" fill="#E30A81"/>
</g>
<g clip-path="url(#clip4_25_91)">
<path d="M1266.36 592.845C1267.4 585.177 1260.03 579.082 1252.69 581.53L1247.35 583.312C1245.32 583.992 1243.46 585.133 1241.94 586.647L1219.12 609.29C1203.41 624.884 1179.32 628.291 1159.9 617.664L1138.26 605.826C1137.7 605.52 1137.12 605.257 1136.52 605.04C1123.64 600.373 1113.73 616.884 1123.93 626.035L1156.22 663.2C1161.24 668.972 1162.33 677.18 1158.99 684.062L1137.93 727.496C1132.53 738.64 1146.83 748.811 1155.58 740.048C1155.96 739.668 1156.37 739.316 1156.8 738.996L1178.01 723.222C1194.24 711.152 1216.15 710.05 1233.51 720.43L1262.98 738.053C1274.9 743.977 1286.49 729.504 1278.12 719.165L1277.69 718.64L1253.23 684.201C1243.04 669.861 1241.14 651.223 1248.22 635.121L1265.57 595.656C1265.97 594.761 1266.23 593.814 1266.36 592.845Z" fill="#FBDB18"/>
</g>
<defs>
<linearGradient id="paint0_linear_25_91" x1="210.293" y1="59.1967" x2="147.933" y2="138.676" gradientUnits="userSpaceOnUse">
<stop stop-color="#EB5051"/>
<stop offset="1" stop-color="#FBDB18"/>
</linearGradient>
<clipPath id="clip0_25_91">
<rect width="103.203" height="118.615" rx="12" transform="matrix(0.786741 0.617283 -0.590643 0.806933 491.059 347)" fill="white"/>
</clipPath>
<clipPath id="clip1_25_91">
<rect width="103.203" height="118.615" rx="12" transform="matrix(0.786741 0.617283 -0.590643 0.806933 176.038 30.7723)" fill="white"/>
</clipPath>
<clipPath id="clip2_25_91">
<rect x="642.532" width="388.688" height="329.709" rx="12" transform="rotate(42.214 642.532 0)" fill="white"/>
</clipPath>
<clipPath id="clip3_25_91">
<rect x="177.863" y="392" width="271.189" height="340.842" rx="12" transform="rotate(37.1558 177.863 392)" fill="white"/>
</clipPath>
<clipPath id="clip4_25_91">
<rect x="1158.77" y="489" width="325.525" height="309.227" rx="12" transform="rotate(37.1558 1158.77 489)" fill="white"/>
</clipPath>
</defs>
</svg>
